<svg xmlns="http://www.w3.org/2000/svg" width="21.816" height="23.5" viewBox="0 0 21.816 23.5">
  <g id="Group_4" data-name="Group 4" transform="translate(-14.972 -207.25)">
    <path id="Path_5" data-name="Path 5" d="M-47.936,213.914V195.875l13.028,12.349h-6.85l4.365,8.677-2.4.974-3.934-8.54Z" transform="translate(70.422 12.125)" fill="rgba(255,255,255,0)" stroke="#2b2b2b" stroke-linejoin="round" stroke-width="1.5"/>
    <path id="star-alt-3-svgrepo-com" d="M7.859,3l1.1,2.787a2.318,2.318,0,0,0,.23.494,1.079,1.079,0,0,0,.249.249,2.319,2.319,0,0,0,.494.23l2.787,1.1-2.787,1.1a2.318,2.318,0,0,0-.494.23,1.078,1.078,0,0,0-.249.249,2.318,2.318,0,0,0-.23.494l-1.1,2.787L6.76,9.931a2.319,2.319,0,0,0-.23-.494,1.079,1.079,0,0,0-.249-.249,2.318,2.318,0,0,0-.494-.23L3,7.859l2.787-1.1a2.319,2.319,0,0,0,.494-.23,1.08,1.08,0,0,0,.249-.249,2.319,2.319,0,0,0,.23-.494Z" transform="translate(22.44 205)" fill="#f6f6f6" stroke="#f6f6f6" stroke-linecap="round" stroke-linejoin="round" stroke-width="1.5"/>
    <path id="star-alt-3-svgrepo-com-2" data-name="star-alt-3-svgrepo-com" d="M7.859,3l1.1,2.787a2.318,2.318,0,0,0,.23.494,1.079,1.079,0,0,0,.249.249,2.319,2.319,0,0,0,.494.23l2.276,1.1-2.276,1.1a2.318,2.318,0,0,0-.494.23,1.078,1.078,0,0,0-.249.249,2.318,2.318,0,0,0-.23.494l-1.1,2.787L6.76,9.931a2.319,2.319,0,0,0-.23-.494,1.079,1.079,0,0,0-.249-.249,2.318,2.318,0,0,0-.494-.23L3,7.859l2.787-1.1a2.319,2.319,0,0,0,.494-.23,1.08,1.08,0,0,0,.249-.249,2.319,2.319,0,0,0,.23-.494Z" transform="translate(12.722 212)" fill="#f6f6f6" stroke="#f6f6f6" stroke-linecap="round" stroke-linejoin="round" stroke-width="1.5"/>
    <path id="star-alt-3-svgrepo-com-3" data-name="star-alt-3-svgrepo-com" d="M5.829,3l.64,1.623A1.349,1.349,0,0,0,6.6,4.91a.628.628,0,0,0,.145.145,1.35,1.35,0,0,0,.288.134l1.623.64-1.623.64a1.349,1.349,0,0,0-.288.134.628.628,0,0,0-.145.145,1.349,1.349,0,0,0-.134.288l-.64,1.623-.64-1.623a1.35,1.35,0,0,0-.134-.288A.628.628,0,0,0,4.91,6.6a1.349,1.349,0,0,0-.288-.134L3,5.829l1.623-.64a1.35,1.35,0,0,0,.288-.134.629.629,0,0,0,.145-.145,1.35,1.35,0,0,0,.134-.288Z" transform="translate(24.5 207)" fill="none" stroke="#000" stroke-linecap="round" stroke-linejoin="round" stroke-width="1.5"/>
    <path id="star-alt-3-svgrepo-com-4" data-name="star-alt-3-svgrepo-com" d="M5.829,3l.64,1.623A1.349,1.349,0,0,0,6.6,4.91a.628.628,0,0,0,.145.145,1.35,1.35,0,0,0,.288.134l1.623.64-1.623.64a1.349,1.349,0,0,0-.288.134.628.628,0,0,0-.145.145,1.349,1.349,0,0,0-.134.288l-.64,1.623-.64-1.623a1.35,1.35,0,0,0-.134-.288A.628.628,0,0,0,4.91,6.6a1.349,1.349,0,0,0-.288-.134L3,5.829l1.623-.64a1.35,1.35,0,0,0,.288-.134.629.629,0,0,0,.145-.145,1.35,1.35,0,0,0,.134-.288Z" transform="translate(14.782 214)" fill="none" stroke="#000" stroke-linecap="round" stroke-linejoin="round" stroke-width="1.5"/>
    <path id="star-alt-3-svgrepo-com-5" data-name="star-alt-3-svgrepo-com" d="M4.491,3l.337.855a.711.711,0,0,0,.071.152.331.331,0,0,0,.076.076.711.711,0,0,0,.152.071l.855.337-.855.337a.711.711,0,0,0-.152.071.331.331,0,0,0-.076.076.711.711,0,0,0-.071.152l-.337.855-.337-.855a.711.711,0,0,0-.071-.152A.331.331,0,0,0,4.006,4.9a.711.711,0,0,0-.152-.071L3,4.491l.855-.337a.711.711,0,0,0,.152-.071.331.331,0,0,0,.076-.076.711.711,0,0,0,.071-.152Z" transform="translate(13.206 206.693)" fill="none" stroke="#000" stroke-linecap="round" stroke-linejoin="round" stroke-width="0.5"/>
    <path id="star-alt-3-svgrepo-com-6" data-name="star-alt-3-svgrepo-com" d="M4.491,3l.337.855a.711.711,0,0,0,.071.152.331.331,0,0,0,.076.076.711.711,0,0,0,.152.071l.855.337-.855.337a.711.711,0,0,0-.152.071.331.331,0,0,0-.076.076.711.711,0,0,0-.071.152l-.337.855-.337-.855a.711.711,0,0,0-.071-.152A.331.331,0,0,0,4.006,4.9a.711.711,0,0,0-.152-.071L3,4.491l.855-.337a.711.711,0,0,0,.152-.071.331.331,0,0,0,.076-.076.711.711,0,0,0,.071-.152Z" transform="translate(30.557 220.326)" fill="none" stroke="#000" stroke-linecap="round" stroke-linejoin="round" stroke-width="0.5"/>
  </g>
</svg>
