<svg xmlns="http://www.w3.org/2000/svg" width="21.537" height="24.023" viewBox="0 0 21.537 24.023">
  <path id="Path_1" data-name="Path 1" d="M-54.542,160.71c-1-.575-9.659-8.876-9.659-8.876s-.328-.734.594-1.656,1.56-.5,1.56-.5l4.489,4.5V139.9s-.063-1.315,1.642-1.315,1.66,1.315,1.66,1.315v8.964s-.26-2.976,1.677-2.976,1.543,2.976,1.543,2.976-.161-2.885,1.824-2.4,1.551,3.221,1.551,3.221-.027-2.105,1.665-2.105,1.689,2.105,1.689,2.105.107,7.043,0,7.4a18.148,18.148,0,0,1-3.353,3.634C-48.495,161.192-53.546,161.285-54.542,160.71Z" transform="translate(65.045 -137.835)" fill="rgba(255,255,255,0)" stroke="#2b2b2b" stroke-linecap="round" stroke-linejoin="round" stroke-width="1.5"/>
</svg>
